# xmcd
#
# Track frame offsets:
#	150
#	12730
#	27600
#	41061
#	52888
#	68272
#	81181
#	96534
#	109800
#	124690
#	146018
#	169865
#	185267
#	201677
#	214321
#	229482
#	242272
#
# Disc length: 3500 seconds
#
# Revision: 1
# Processed by: cddbd v1.5.2PL0 Copyright (c) Steve Scherf et al.
# Submitted via: audiograbber 1.83.01
#
DISCID=fb0daa11
DTITLE=Joerg Swoboda - Darum häng ich mein Leben an dich
DYEAR=1900
DGENRE=Christliche Lieder
TTITLE0=Augenblicksglück
TTITLE1=Der uns erschuf
TTITLE2=Der Fensterputzer
TTITLE3=Der Kuli
TTITLE4=Meinen Glauben hab ich verloren
TTITLE5=Ist das die selbe Erde
TTITLE6=Der verlorene Sohn
TTITLE7=Tattoo-Bues
TTITLE8=Für immer gehör ich zu Dir
TTITLE9=An meine Mutter
TTITLE10=Es gibt Tage
TTITLE11=Nur bei Dir find ich Geborgenheit
TTITLE12=Ich liebe dein Kind
TTITLE13=Könnte mütig weitergehen
TTITLE14=Kreutzweg
TTITLE15=Kraftlos-Blues
TTITLE16=Verlass dich nciht auf Astrologen
EXTD=
EXTT0=
EXTT1=
EXTT2=
EXTT3=
EXTT4=
EXTT5=
EXTT6=
EXTT7=
EXTT8=
EXTT9=
EXTT10=
EXTT11=
EXTT12=
EXTT13=
EXTT14=
EXTT15=
EXTT16=
PLAYORDER=
